<svg width="800" height="800" viewBox="0 0 800 800" xmlns="http://www.w3.org/2000/svg">
  <defs>
    <linearGradient id="crewGradient" x1="0" y1="0" x2="1" y2="1">
      <stop offset="0%" stop-color="#fee2e2" />
      <stop offset="100%" stop-color="#fef3c7" />
    </linearGradient>
  </defs>
  <rect width="800" height="800" rx="64" fill="url(#crewGradient)" />
  <g transform="translate(160 160)" stroke="#1e293b" stroke-width="12" fill="none" stroke-linejoin="round" stroke-linecap="round">
    <rect x="60" y="80" width="360" height="320" rx="72" fill="#f8fafc" />
    <path d="M60 160c-32 0-60-28-60-60l120-80 80 60" fill="#fef2f2" />
    <path d="M420 160c32 0 60-28 60-60l-120-80-80 60" fill="#fff7ed" />
    <path d="M180 300c40-28 80-28 120 0" />
    <path d="M240 240c0-44 20-80 60-108 0 48 32 76 32 108 0 32-20 60-68 60-48 0-68-28-68-60s32-68 44-92" />
    <path d="M120 440h300" />
  </g>
</svg>
