<svg width="900" height="540" viewBox="0 0 900 540" xmlns="http://www.w3.org/2000/svg" role="img" aria-label="AI Signal Boost thumbnail graphic">
  <defs>
    <linearGradient id="pulse" x1="0%" y1="0%" x2="100%" y2="100%">
      <stop offset="0%" stop-color="#0ea5e9" />
      <stop offset="50%" stop-color="#a855f7" />
      <stop offset="100%" stop-color="#22c55e" />
    </linearGradient>
  </defs>
  <rect width="900" height="540" rx="32" fill="url(#pulse)" />
  <g fill="none" stroke="#fff" stroke-width="3" opacity="0.55">
    <path d="M80 360 C200 200 320 420 440 260 C560 120 680 360 820 210" />
    <path d="M80 310 C200 150 340 360 440 200 C560 60 690 320 840 140" opacity="0.35" />
    <path d="M90 410 C240 290 340 470 470 330 C610 190 700 430 840 260" opacity="0.75" />
  </g>
  <text x="70" y="130" fill="#0b1224" font-size="22" font-family="'Inter', 'Segoe UI', sans-serif" font-weight="600" opacity="0.8">Live Web Pulse</text>
  <text x="70" y="190" fill="#ffffff" font-size="52" font-family="'Inter', 'Segoe UI', sans-serif" font-weight="800">AI Signal Boost</text>
  <text x="70" y="240" fill="#e2e8f0" font-size="24" font-family="'Inter', 'Segoe UI', sans-serif" font-weight="600">Realtime model drops for edge users</text>
  <circle cx="720" cy="130" r="70" fill="#0f172a" opacity="0.4" />
  <text x="675" y="140" fill="#a5f3fc" font-size="22" font-family="'Inter', 'Segoe UI', sans-serif" font-weight="700">24/7</text>
  <text x="665" y="170" fill="#cbd5e1" font-size="14" font-family="'Inter', 'Segoe UI', sans-serif">live ticker</text>
</svg>
